<svg xmlns="http://www.w3.org/2000/svg" viewBox="0 0 1366 768"><defs><style>.cls-1{fill:#111;}.cls-2{fill:#191919;}</style></defs><title>background</title><g id="black"><rect class="cls-1" x="0.5" y="0.5" width="1365" height="767"/><path d="M1365,1V767H1V1H1365m1-1H0V768H1366V0Z"/></g><g id="Layer_2" data-name="Layer 2"><polygon class="cls-2" points="706 284 447 284 482 442 706 284"/><polygon class="cls-2" points="550.74 -70.85 375.77 120.11 515.91 201.04 550.74 -70.85"/><polygon class="cls-2" points="122.9 656.28 -38.17 453.46 -140.13 579.13 122.9 656.28"/><polygon class="cls-2" points="665.01 856.45 450.8 710.87 390.94 861.22 665.01 856.45"/><polygon class="cls-2" points="750.41 412 992.62 503.75 1015.86 343.6 750.41 412"/><polygon class="cls-2" points="655.87 31.06 793.15 250.69 908.58 137.26 655.87 31.06"/><polygon class="cls-2" points="194.3 708.82 430.93 603.54 334.73 473.41 194.3 708.82"/><polygon class="cls-2" points="820.99 733.84 724.68 493.41 591.02 584.65 820.99 733.84"/><polygon class="cls-2" points="1290.79 254.14 1113.26 65.56 1022.2 199.34 1290.79 254.14"/><polygon class="cls-2" points="1230.68 538.29 1039.63 713.16 1172.13 806.08 1230.68 538.29"/><polygon class="cls-2" points="1244.22 299.79 1329.62 544.31 1467.24 459.17 1244.22 299.79"/><polygon class="cls-2" points="1486.9 65.28 1325.83 -137.54 1223.87 -11.87 1486.9 65.28"/><polygon class="cls-2" points="286.33 198.86 69.89 341.1 185.91 453.92 286.33 198.86"/><polygon class="cls-2" points="194.07 152.06 100.19 -89.33 -34.38 0.56 194.07 152.06"/></g></svg>