<svg id="Base_Circles" data-name="Base Circles" xmlns="http://www.w3.org/2000/svg" xmlns:xlink="http://www.w3.org/1999/xlink" viewBox="0 0 288 288"><defs><style>.cls-1{fill:orange;}.cls-2{fill:url(#linear-gradient);}.cls-3{fill:#fcfaf9;}</style><linearGradient id="linear-gradient" x1="860.76" y1="-245.55" x2="781.98" y2="-382.01" gradientTransform="translate(941.5 -211.37) rotate(180)" gradientUnits="userSpaceOnUse"><stop offset="0" stop-color="gold"/><stop offset="0.27" stop-color="#ffc700" stop-opacity="0.68"/><stop offset="0.53" stop-color="#ffb800" stop-opacity="0.39"/><stop offset="0.75" stop-color="#ffae00" stop-opacity="0.18"/><stop offset="0.91" stop-color="#ffa700" stop-opacity="0.05"/><stop offset="1" stop-color="orange" stop-opacity="0"/></linearGradient></defs><title>Clicked Artboard 10</title><circle class="cls-1" cx="144" cy="144" r="126"/><path class="cls-2" d="M59.73,152.39l-34.83-49s26.92-91,129.85-85.81l76.65,111.52L59.73,152.39"/><circle class="cls-3" cx="164.39" cy="113.71" r="14.81"/><circle class="cls-3" cx="123.61" cy="113.71" r="14.81"/><path class="cls-3" d="M164.39,131.21h0a16.67,16.67,0,0,1,16.67,16.67V183.4a4.69,4.69,0,0,1-4.69,4.69h-24a4.69,4.69,0,0,1-4.69-4.69V147.88A16.67,16.67,0,0,1,164.39,131.21Z"/><path class="cls-3" d="M123.61,131.21h0a16.67,16.67,0,0,1,16.67,16.67V183.4a4.69,4.69,0,0,1-4.69,4.69h-24a4.69,4.69,0,0,1-4.69-4.69V147.88a16.67,16.67,0,0,1,16.67-16.67Z"/></svg>